<svg width="25" height="23" viewBox="0 0 25 23" fill="none" xmlns="http://www.w3.org/2000/svg">
<path d="M15.625 15.3696C15.625 15.8013 15.2754 16.1509 14.8438 16.1509H10.1562C9.72461 16.1509 9.375 15.8013 9.375 15.3696V13.0259H0V20.0571C0 21.3071 1.09375 22.4009 2.34375 22.4009H22.6562C23.9062 22.4009 25 21.3071 25 20.0571V13.0259H15.625V15.3696ZM22.6562 5.21338H18.75V2.86963C18.75 1.61963 17.6562 0.525879 16.4062 0.525879H8.59375C7.34375 0.525879 6.25 1.61963 6.25 2.86963V5.21338H2.34375C1.09375 5.21338 0 6.30713 0 7.55713V11.4634H25V7.55713C25 6.30713 23.9062 5.21338 22.6562 5.21338ZM15.625 5.21338H9.375V3.65088H15.625V5.21338Z" fill="#D9D9D9"/>
</svg>
