<svg width="34" height="51" viewBox="0 0 34 51" fill="none" xmlns="http://www.w3.org/2000/svg">
<path d="M25.0097 17.6143C27.2203 17.6143 29.3403 16.7361 30.9034 15.173C32.4666 13.6099 33.3447 11.4899 33.3447 9.2793C33.3447 7.06873 32.4666 4.9487 30.9034 3.38559C29.3403 1.82248 27.2203 0.944336 25.0097 0.944336L8.33984 0.944336C6.13057 0.944336 4.01178 1.82197 2.44959 3.38416C0.887398 4.94635 0.00976788 7.06514 0.00976788 9.27441C0.00976788 11.4837 0.887398 13.6025 2.44959 15.1647C4.01178 16.7269 6.13057 17.6045 8.33984 17.6045C6.12927 17.6045 4.00924 18.4826 2.44614 20.0457C0.88303 21.6089 0.00488515 23.7289 0.00488515 25.9395C0.00488515 28.15 0.88303 30.2701 2.44614 31.8332C4.00924 33.3963 6.12927 34.2744 8.33984 34.2744C6.69134 34.2734 5.07958 34.7613 3.70836 35.6764C2.33715 36.5914 1.26808 37.8926 0.636334 39.4152C0.00458913 40.9379 -0.161452 42.6136 0.159206 44.2307C0.479865 45.8477 1.27282 47.3333 2.4378 48.4996C3.60278 49.666 5.08747 50.4607 6.7041 50.7832C8.32073 51.1058 9.99671 50.9417 11.5201 50.3117C13.0435 49.6818 14.3458 48.6142 15.2625 47.2441C16.1792 45.8739 16.6689 44.2628 16.6699 42.6143V17.6143H25.0097ZM25.0097 17.6143C23.3622 17.6143 21.7517 18.1028 20.3818 19.0181C19.0119 19.9334 17.9442 21.2344 17.3138 22.7566C16.6833 24.2787 16.5183 25.9536 16.8397 27.5695C17.1612 29.1853 17.9545 30.6696 19.1195 31.8346C20.2845 32.9996 21.7688 33.7929 23.3846 34.1144C25.0005 34.4358 26.6754 34.2708 28.1975 33.6403C29.7196 33.0098 31.0206 31.9422 31.9359 30.5723C32.8513 29.2024 33.3398 27.5919 33.3398 25.9443C33.3396 23.7351 32.4618 21.6165 30.8997 20.0544C29.3376 18.4922 27.2189 17.6145 25.0097 17.6143Z" fill="url(#paint0_linear_152_117)"/>
<defs>
<linearGradient id="paint0_linear_152_117" x1="16.6723" y1="0.944336" x2="16.6723" y2="50.9443" gradientUnits="userSpaceOnUse">
<stop stop-color="#C0AD5A" stop-opacity="0.866667"/>
<stop offset="1" stop-color="#B98E53"/>
</linearGradient>
</defs>
</svg>
