<svg width="50" height="71" viewBox="0 0 50 71" fill="none" xmlns="http://www.w3.org/2000/svg">
<path d="M25.2214 37.5225C26.3672 37.5225 27.2396 37.8916 27.8646 38.6299C29.1146 40.1201 29.1406 43.1006 27.8385 44.6592C27.2005 45.4248 26.2891 45.8213 25.0911 45.8213H21.5885V37.5225H25.2214ZM49.0885 14.7998L36.3281 1.40137C35.7422 0.786133 34.9479 0.444336 34.1146 0.444336H33.3333V17.9443H50V17.1104C50 16.249 49.6745 15.415 49.0885 14.7998ZM29.1667 19.0381V0.444336H3.125C1.39323 0.444336 0 1.90723 0 3.72559V67.1631C0 68.9814 1.39323 70.4443 3.125 70.4443H46.875C48.6068 70.4443 50 68.9814 50 67.1631V22.3193H32.2917C30.5729 22.3193 29.1667 20.8428 29.1667 19.0381ZM36.0677 41.624C36.0677 53.9697 24.5052 52.2334 21.6016 52.2334V60.0537C21.6016 60.9561 20.8984 61.6943 20.0391 61.6943H16.0286C15.1693 61.6943 14.4661 60.9561 14.4661 60.0537V32.7373C14.4661 31.835 15.1693 31.0967 16.0286 31.0967H26.5755C32.3698 31.0967 36.0677 35.5811 36.0677 41.624Z" fill="url(#paint0_linear_152_127)"/>
<defs>
<linearGradient id="paint0_linear_152_127" x1="25" y1="0.444336" x2="25" y2="70.4443" gradientUnits="userSpaceOnUse">
<stop stop-color="#C0AD5A" stop-opacity="0.866667"/>
<stop offset="1" stop-color="#B98E53"/>
</linearGradient>
</defs>
</svg>
