<svg width="22" height="22" viewBox="0 0 22 22" fill="none" xmlns="http://www.w3.org/2000/svg">
<path d="M11.0049 5.38477C7.89941 5.38477 5.39453 7.88965 5.39453 10.9951C5.39453 14.1006 7.89941 16.6055 11.0049 16.6055C14.1104 16.6055 16.6152 14.1006 16.6152 10.9951C16.6152 7.88965 14.1104 5.38477 11.0049 5.38477ZM11.0049 14.6426C8.99805 14.6426 7.35742 13.0068 7.35742 10.9951C7.35742 8.9834 8.99316 7.34766 11.0049 7.34766C13.0166 7.34766 14.6523 8.9834 14.6523 10.9951C14.6523 13.0068 13.0117 14.6426 11.0049 14.6426ZM18.1533 5.15527C18.1533 5.88281 17.5674 6.46387 16.8447 6.46387C16.1172 6.46387 15.5361 5.87793 15.5361 5.15527C15.5361 4.43262 16.1221 3.84668 16.8447 3.84668C17.5674 3.84668 18.1533 4.43262 18.1533 5.15527ZM21.8691 6.4834C21.7861 4.73047 21.3857 3.17773 20.1016 1.89844C18.8223 0.619141 17.2695 0.21875 15.5166 0.130859C13.71 0.0283203 8.29492 0.0283203 6.48828 0.130859C4.74023 0.213867 3.1875 0.614258 1.90332 1.89355C0.619141 3.17285 0.223633 4.72559 0.135742 6.47852C0.0332031 8.28516 0.0332031 13.7002 0.135742 15.5068C0.21875 17.2598 0.619141 18.8125 1.90332 20.0918C3.1875 21.3711 4.73535 21.7715 6.48828 21.8594C8.29492 21.9619 13.71 21.9619 15.5166 21.8594C17.2695 21.7764 18.8223 21.376 20.1016 20.0918C21.3809 18.8125 21.7812 17.2598 21.8691 15.5068C21.9717 13.7002 21.9717 8.29004 21.8691 6.4834ZM19.5352 17.4453C19.1543 18.4023 18.417 19.1396 17.4551 19.5254C16.0146 20.0967 12.5967 19.9648 11.0049 19.9648C9.41309 19.9648 5.99023 20.0918 4.55469 19.5254C3.59766 19.1445 2.86035 18.4072 2.47461 17.4453C1.90332 16.0049 2.03516 12.5869 2.03516 10.9951C2.03516 9.40332 1.9082 5.98047 2.47461 4.54492C2.85547 3.58789 3.59277 2.85059 4.55469 2.46484C5.99512 1.89355 9.41309 2.02539 11.0049 2.02539C12.5967 2.02539 16.0195 1.89844 17.4551 2.46484C18.4121 2.8457 19.1494 3.58301 19.5352 4.54492C20.1064 5.98535 19.9746 9.40332 19.9746 10.9951C19.9746 12.5869 20.1064 16.0098 19.5352 17.4453Z" fill="url(#paint0_linear_270_241)"/>
<defs>
<linearGradient id="paint0_linear_270_241" x1="11.0024" y1="0.0539551" x2="11.0024" y2="21.9363" gradientUnits="userSpaceOnUse">
<stop stop-color="#C0AD5A" stop-opacity="0.866667"/>
<stop offset="1" stop-color="#B98E53"/>
</linearGradient>
</defs>
</svg>
