<svg width="25" height="21" viewBox="0 0 25 21" fill="none" xmlns="http://www.w3.org/2000/svg">
<path d="M18.0556 7.68565C18.0556 3.84885 14.0148 0.741211 9.02778 0.741211C4.0408 0.741211 0 3.84885 0 7.68565C0 9.17437 0.611979 10.5459 1.64931 11.6787C1.06771 12.9895 0.108507 14.0311 0.0954861 14.0442C0 14.144 -0.0260417 14.2916 0.0303819 14.4218C0.0868056 14.552 0.208333 14.6301 0.347222 14.6301C1.93576 14.6301 3.25087 14.0962 4.19705 13.545C5.59462 14.2265 7.24826 14.6301 9.02778 14.6301C14.0148 14.6301 18.0556 11.5225 18.0556 7.68565ZM23.3507 17.2343C24.388 16.1058 25 14.7299 25 13.2412C25 10.3376 22.678 7.85058 19.388 6.81326C19.4271 7.09972 19.4444 7.39052 19.4444 7.68565C19.4444 12.282 14.77 16.019 9.02778 16.019C8.55903 16.019 8.1033 15.9843 7.65191 15.9365C9.0191 18.4322 12.2309 20.1857 15.9722 20.1857C17.7517 20.1857 19.4054 19.7863 20.8029 19.1006C21.7491 19.6518 23.0642 20.1857 24.6528 20.1857C24.7917 20.1857 24.9175 20.1032 24.9696 19.9773C25.026 19.8515 25 19.7039 24.9045 19.5997C24.8915 19.5867 23.9323 18.5494 23.3507 17.2343Z" fill="#D9D9D9"/>
</svg>
