<svg width="21" height="20" viewBox="0 0 21 20" fill="none" xmlns="http://www.w3.org/2000/svg">
<path d="M10.5 0C4.97714 0 0.5 4.47714 0.5 10C0.5 15.5229 4.97714 20 10.5 20C16.0229 20 20.5 15.5229 20.5 10C20.5 4.47714 16.0229 0 10.5 0ZM15.2231 13.982C15.159 14.0573 13.6193 15.826 10.7937 15.826C7.37867 15.826 4.9677 13.2752 4.9677 9.95633C4.9677 6.67798 7.46786 4.17403 10.7646 4.17403C13.4644 4.17403 14.876 5.67867 14.9348 5.74274C15.0072 5.82165 15.0514 5.92234 15.0604 6.02904C15.0694 6.13574 15.0428 6.24243 14.9847 6.33238L14.0823 7.72976C13.919 7.98246 13.5672 8.02617 13.3471 7.8223C13.3377 7.81367 12.2773 6.8594 10.8519 6.8594C8.99238 6.8594 7.87141 8.21323 7.87141 9.92722C7.87141 11.5241 8.9002 13.1406 10.8665 13.1406C12.4268 13.1406 13.4987 11.9979 13.5094 11.9864C13.7163 11.762 14.0763 11.7834 14.2556 12.0288L15.2454 13.3825C15.3097 13.4704 15.3424 13.5774 15.3384 13.6861C15.3343 13.7949 15.2937 13.8991 15.2231 13.982Z" fill="url(#paint0_linear_219_1953)"/>
<defs>
<linearGradient id="paint0_linear_219_1953" x1="10.5" y1="0" x2="10.5" y2="20" gradientUnits="userSpaceOnUse">
<stop stop-color="#C0AD5A" stop-opacity="0.866667"/>
<stop offset="1" stop-color="#B98E53"/>
</linearGradient>
</defs>
</svg>
