<svg width="26" height="26" viewBox="0 0 26 26" fill="none" xmlns="http://www.w3.org/2000/svg">
<path d="M15.6507 23.1056L11.856 25.0287C5.43862 24.4097 0.5 20.7318 0.5 16.2667C0.5 11.9698 5.10379 8.39407 11.1975 7.59479V10.1789C7.20759 10.9301 4.2779 13.364 4.2779 16.2667C4.2779 19.3316 7.54241 21.8736 11.8504 22.4566V2.02388L15.6451 0.0286865V23.1056H15.6507ZM25.5 14.6321L18.173 12.9193L20.2266 11.6753C19.1384 10.9842 17.7991 10.4734 16.3203 10.1849V7.6008C18.8984 7.93133 21.2143 8.77268 23.0335 9.96258L24.9866 8.77268L25.5 14.6321Z" fill="url(#paint0_linear_2_60)"/>
<defs>
<linearGradient id="paint0_linear_2_60" x1="13" y1="0.0286865" x2="13" y2="25.0287" gradientUnits="userSpaceOnUse">
<stop stop-color="#C0AD5A" stop-opacity="0.866667"/>
<stop offset="1" stop-color="#B98E53"/>
</linearGradient>
</defs>
</svg>
