<svg width="32" height="26" viewBox="0 0 32 26" fill="none" xmlns="http://www.w3.org/2000/svg">
<path d="M25.3073 9.38088L24.9101 10.0815C24.7648 10.3411 24.4548 10.4489 24.1787 10.346C23.607 10.1305 23.0839 9.82181 22.6237 9.43477C22.4009 9.24859 22.3427 8.92034 22.4881 8.66558L22.8853 7.96497C22.551 7.57303 22.2894 7.11739 22.1151 6.62256H21.3158C21.0251 6.62256 20.7732 6.41189 20.7248 6.11793C20.6279 5.53001 20.6231 4.9127 20.7248 4.30028C20.7732 4.00633 21.0251 3.79076 21.3158 3.79076H22.1151C22.2894 3.29592 22.551 2.84029 22.8853 2.44834L22.4881 1.74774C22.3427 1.49298 22.396 1.16472 22.6237 0.978547C23.0839 0.591501 23.6119 0.282844 24.1787 0.0672744C24.4548 -0.0356113 24.7648 0.0721737 24.9101 0.331837L25.3073 1.03244C25.816 0.939353 26.3343 0.939353 26.8429 1.03244L27.2402 0.331837C27.3855 0.0721737 27.6955 -0.0356113 27.9716 0.0672744C28.5432 0.282844 29.0664 0.591501 29.5266 0.978547C29.7494 1.16472 29.8076 1.49298 29.6622 1.74774L29.265 2.44834C29.5993 2.84029 29.8608 3.29592 30.0352 3.79076H30.8345C31.1252 3.79076 31.3771 4.00143 31.4255 4.29538C31.5224 4.8833 31.5272 5.50062 31.4255 6.11303C31.3771 6.40699 31.1252 6.62256 30.8345 6.62256H30.0352C29.8608 7.11739 29.5993 7.57303 29.265 7.96497L29.6622 8.66558C29.8076 8.92034 29.7543 9.24859 29.5266 9.43477C29.0664 9.82181 28.5384 10.1305 27.9716 10.346C27.6955 10.4489 27.3855 10.3411 27.2402 10.0815L26.8429 9.38088C26.3392 9.47396 25.816 9.47396 25.3073 9.38088ZM24.7987 6.50008C26.6637 7.95027 28.7903 5.79948 27.3564 3.91324C25.4914 2.45814 23.3648 4.61384 24.7987 6.50008ZM19.2134 14.0401L20.8459 14.8632C21.3351 15.1474 21.5483 15.75 21.3545 16.2889C20.9234 17.4745 20.0757 18.5622 19.2909 19.5127C18.9324 19.9487 18.3124 20.0565 17.8231 19.7723L16.4135 18.9492C15.6384 19.6204 14.7374 20.1545 13.7541 20.5023V22.1485C13.7541 22.7168 13.352 23.2067 12.7998 23.3047C11.6081 23.5105 10.3583 23.5203 9.12304 23.3047C8.56596 23.2067 8.15421 22.7217 8.15421 22.1485V20.5023C7.17085 20.1496 6.26984 19.6204 5.49477 18.9492L4.08513 19.7674C3.60071 20.0516 2.97582 19.9438 2.61735 19.5078C1.8326 18.5573 1.00425 17.4696 0.573117 16.2889C0.379351 15.7549 0.592494 15.1523 1.08175 14.8632L2.69485 14.0401C2.50593 13.0162 2.50593 11.9628 2.69485 10.934L1.08175 10.106C0.592494 9.82181 0.374507 9.2192 0.573117 8.68517C1.00425 7.49954 1.8326 6.41189 2.61735 5.46142C2.97582 5.02538 3.59587 4.9176 4.08513 5.20176L5.49477 6.02484C6.26984 5.35364 7.17085 4.81961 8.15421 4.47176V2.82069C8.15421 2.25727 8.55143 1.76734 9.10367 1.66935C10.2953 1.46358 11.55 1.45378 12.7852 1.66445C13.3423 1.76244 13.7541 2.24747 13.7541 2.82069V4.46686C14.7374 4.81961 15.6384 5.34874 16.4135 6.01994L17.8231 5.19686C18.3076 4.9127 18.9324 5.02048 19.2909 5.45652C20.0757 6.40699 20.8992 7.49464 21.3303 8.68027C21.5241 9.2143 21.3351 9.81691 20.8459 10.106L19.2134 10.9291C19.4023 11.9579 19.4023 13.0113 19.2134 14.0401ZM13.5167 15.0739C16.3844 11.3014 12.1264 6.99491 8.39642 9.8953C5.52868 13.6678 9.78669 17.9743 13.5167 15.0739ZM25.3073 24.0249L24.9101 24.7255C24.7648 24.9852 24.4548 25.093 24.1787 24.9901C23.607 24.7745 23.0839 24.4659 22.6237 24.0788C22.4009 23.8927 22.3427 23.5644 22.4881 23.3096L22.8853 22.609C22.551 22.2171 22.2894 21.7614 22.1151 21.2666H21.3158C21.0251 21.2666 20.7732 21.0559 20.7248 20.762C20.6279 20.1741 20.6231 19.5568 20.7248 18.9443C20.7732 18.6504 21.0251 18.4348 21.3158 18.4348H22.1151C22.2894 17.94 22.551 17.4843 22.8853 17.0924L22.4881 16.3918C22.3427 16.137 22.396 15.8088 22.6237 15.6226C23.0839 15.2356 23.6119 14.9269 24.1787 14.7113C24.4548 14.6084 24.7648 14.7162 24.9101 14.9759L25.3073 15.6765C25.816 15.5834 26.3343 15.5834 26.8429 15.6765L27.2402 14.9759C27.3855 14.7162 27.6955 14.6084 27.9716 14.7113C28.5432 14.9269 29.0664 15.2356 29.5266 15.6226C29.7494 15.8088 29.8076 16.137 29.6622 16.3918L29.265 17.0924C29.5993 17.4843 29.8608 17.94 30.0352 18.4348H30.8345C31.1252 18.4348 31.3771 18.6455 31.4255 18.9394C31.5224 19.5274 31.5272 20.1447 31.4255 20.7571C31.3771 21.051 31.1252 21.2666 30.8345 21.2666H30.0352C29.8608 21.7614 29.5993 22.2171 29.265 22.609L29.6622 23.3096C29.8076 23.5644 29.7543 23.8927 29.5266 24.0788C29.0664 24.4659 28.5384 24.7745 27.9716 24.9901C27.6955 25.093 27.3855 24.9852 27.2402 24.7255L26.8429 24.0249C26.3392 24.118 25.816 24.118 25.3073 24.0249ZM24.7987 21.1392C26.6637 22.5894 28.7903 20.4386 27.3564 18.5524C25.4914 17.1022 23.3648 19.253 24.7987 21.1392Z" fill="url(#paint0_linear_2_62)"/>
<defs>
<linearGradient id="paint0_linear_2_62" x1="16" y1="0.0286865" x2="16" y2="25.0287" gradientUnits="userSpaceOnUse">
<stop stop-color="#C0AD5A" stop-opacity="0.866667"/>
<stop offset="1" stop-color="#B98E53"/>
</linearGradient>
</defs>
</svg>
