<svg width="50" height="51" viewBox="0 0 50 51" fill="none" xmlns="http://www.w3.org/2000/svg">
<path d="M49.0568 23.7178L27.2321 1.88706C26.628 1.28341 25.8088 0.944336 24.9548 0.944336C24.1007 0.944336 23.2816 1.28341 22.6775 1.88706L18.1395 6.42173L23.8895 12.1718C26.9096 11.1517 29.769 14.0435 28.7321 17.0469L34.2745 22.5894C38.0948 21.2724 41.1026 26.0493 38.2332 28.9165C35.2767 31.8731 30.3973 28.5962 31.9832 24.7491L26.8103 19.5827V33.1822C29.6339 34.5818 29.2946 37.8531 27.8237 39.3207C27.105 40.039 26.1305 40.4425 25.1144 40.4425C24.0983 40.4425 23.1238 40.039 22.4051 39.3207C20.4442 37.3564 21.1697 34.0851 23.6607 33.0706V19.3427C21.3393 18.3929 20.9152 15.9118 21.5804 14.3203L15.9119 8.64499L0.943166 23.6162C0.33926 24.2203 0 25.0394 0 25.8936C0 26.7478 0.33926 27.5669 0.943166 28.171L22.7746 50.0017C23.3785 50.6053 24.1975 50.9443 25.0513 50.9443C25.9052 50.9443 26.7241 50.6053 27.3281 50.0017L49.0568 28.2725C49.6607 27.6685 50 26.8493 50 25.9952C50 25.141 49.6607 24.3218 49.0568 23.7178Z" fill="url(#paint0_linear_152_148)"/>
<defs>
<linearGradient id="paint0_linear_152_148" x1="25" y1="0.944336" x2="25" y2="50.9443" gradientUnits="userSpaceOnUse">
<stop stop-color="#C0AD5A" stop-opacity="0.866667"/>
<stop offset="1" stop-color="#B98E53"/>
</linearGradient>
</defs>
</svg>
