<svg width="44" height="45" viewBox="0 0 44 45" fill="none" xmlns="http://www.w3.org/2000/svg">
<path d="M39.3125 0.694336H4.9375C2.34961 0.694336 0.25 2.79395 0.25 5.38184V39.7568C0.25 42.3447 2.34961 44.4443 4.9375 44.4443H39.3125C41.9004 44.4443 44 42.3447 44 39.7568V5.38184C44 2.79395 41.9004 0.694336 39.3125 0.694336ZM27.3301 38.165C26.5098 38.3115 26.207 37.8037 26.207 37.3838C26.207 36.8564 26.2266 34.1611 26.2266 31.9834C26.2266 30.46 25.7188 29.4932 25.123 28.9854C28.7363 28.585 32.5449 28.0869 32.5449 21.8467C32.5449 20.0693 31.9102 19.1807 30.875 18.0381C31.041 17.6182 31.5977 15.8896 30.709 13.6436C29.3516 13.2236 26.2461 15.3916 26.2461 15.3916C24.957 15.0303 23.5605 14.8447 22.1836 14.8447C20.8066 14.8447 19.4102 15.0303 18.1211 15.3916C18.1211 15.3916 15.0156 13.2236 13.6582 13.6436C12.7695 15.8799 13.3164 17.6084 13.4922 18.0381C12.457 19.1807 11.9688 20.0693 11.9688 21.8467C11.9688 28.0576 15.6113 28.585 19.2246 28.9854C18.7559 29.4053 18.3359 30.1279 18.1895 31.1631C17.2617 31.583 14.8887 32.3057 13.4727 29.8057C12.584 28.2627 10.9824 28.1357 10.9824 28.1357C9.40039 28.1162 10.875 29.1318 10.875 29.1318C11.9297 29.6201 12.6719 31.4951 12.6719 31.4951C13.6191 34.3955 18.1504 33.4189 18.1504 33.4189C18.1504 34.7764 18.1699 36.9834 18.1699 37.3838C18.1699 37.8037 17.877 38.3115 17.0469 38.165C10.6016 36.0068 6.08984 29.874 6.08984 22.7061C6.08984 13.7412 12.9453 6.93457 21.9102 6.93457C30.875 6.93457 38.1406 13.7412 38.1406 22.7061C38.1504 29.874 33.7754 36.0166 27.3301 38.165ZM17.75 32.1982C17.5645 32.2373 17.3887 32.1592 17.3691 32.0322C17.3496 31.8857 17.4766 31.7588 17.6621 31.7197C17.8477 31.7002 18.0234 31.7783 18.043 31.9053C18.0723 32.0322 17.9453 32.1592 17.75 32.1982ZM16.8223 32.1104C16.8223 32.2373 16.6758 32.3447 16.4805 32.3447C16.2656 32.3643 16.1191 32.2568 16.1191 32.1104C16.1191 31.9834 16.2656 31.876 16.4609 31.876C16.6465 31.8564 16.8223 31.9639 16.8223 32.1104ZM15.4844 32.0029C15.4453 32.1299 15.25 32.1885 15.084 32.1299C14.8984 32.0908 14.7715 31.9443 14.8105 31.8174C14.8496 31.6904 15.0449 31.6318 15.2109 31.6709C15.4062 31.7295 15.5332 31.876 15.4844 32.0029ZM14.2832 31.4756C14.1953 31.583 14.0098 31.5635 13.8633 31.417C13.7168 31.29 13.6777 31.1045 13.7754 31.0166C13.8633 30.9092 14.0488 30.9287 14.1953 31.0752C14.3223 31.2021 14.3711 31.3975 14.2832 31.4756ZM13.3945 30.5869C13.3066 30.6455 13.1406 30.5869 13.0332 30.4404C12.9258 30.2939 12.9258 30.1279 13.0332 30.0596C13.1406 29.9717 13.3066 30.04 13.3945 30.1865C13.502 30.333 13.502 30.5088 13.3945 30.5869ZM12.7598 29.6396C12.6719 29.7275 12.5254 29.6787 12.418 29.5811C12.3105 29.4541 12.291 29.3076 12.3789 29.2393C12.4668 29.1514 12.6133 29.2002 12.7207 29.2979C12.8281 29.4248 12.8477 29.5713 12.7598 29.6396ZM12.1055 28.917C12.0664 29.0049 11.9395 29.0244 11.832 28.9561C11.7051 28.8975 11.6465 28.79 11.6855 28.7021C11.7246 28.6436 11.832 28.6143 11.959 28.6631C12.0859 28.7314 12.1445 28.8389 12.1055 28.917Z" fill="url(#paint0_linear_152_139)"/>
<defs>
<linearGradient id="paint0_linear_152_139" x1="22.125" y1="0.694336" x2="22.125" y2="44.4443" gradientUnits="userSpaceOnUse">
<stop stop-color="#C0AD5A" stop-opacity="0.866667"/>
<stop offset="1" stop-color="#B98E53"/>
</linearGradient>
</defs>
</svg>
