<svg width="651" height="2242" viewBox="0 0 651 2242" fill="none" xmlns="http://www.w3.org/2000/svg">
<path d="M11.1563 1.98169C11.1563 1.98169 22.1568 1.98177 212.657 1.98169C386.657 1.98161 451.657 189.982 459.157 271.482C466.657 352.982 414.882 419.34 356.157 515.982C292.657 620.482 291.935 674.292 133.157 639.982C-84.3441 592.982 25.6566 836.482 53.6566 873.982C81.6566 911.482 170.657 993.982 258.157 1012.48C311.773 1023.82 386.157 1094.48 345.157 1205.98C304.157 1317.48 256.157 1321.98 170.657 1388.98C-30.7038 1546.77 71.3232 1734.96 170.657 1755.48C327.76 1787.93 664.656 1578.98 648.657 1768.98C632.657 1958.98 395.157 2133.79 205.657 2143.98C16.1573 2154.17 7.65718 2227.48 79.1572 2240.48" stroke="url(#paint0_linear_86_37)" stroke-width="2"/>
<defs>
<linearGradient id="paint0_linear_86_37" x1="325.104" y1="1.98169" x2="325.104" y2="2240.48" gradientUnits="userSpaceOnUse">
<stop stop-color="#C0AD5A" stop-opacity="0.866667"/>
<stop offset="1" stop-color="#B98E53"/>
</linearGradient>
</defs>
</svg>
