<svg width="25" height="16" viewBox="0 0 25 16" fill="none" xmlns="http://www.w3.org/2000/svg">
<path d="M24.3101 4.44736L13.4141 1.09971C12.8203 0.917285 12.1797 0.917285 11.5863 1.09971L0.689832 4.44736C-0.2297 4.72979 -0.2297 5.9458 0.689832 6.22822L2.58944 6.81182C2.17264 7.32705 1.91639 7.95557 1.891 8.64385C1.51483 8.85947 1.24999 9.24854 1.24999 9.71299C1.24999 10.1341 1.47186 10.4884 1.79139 10.7149L0.794128 15.2024C0.70741 15.5927 1.00428 15.963 1.40389 15.963H3.59569C3.99569 15.963 4.29257 15.5927 4.20585 15.2024L3.20858 10.7149C3.52811 10.4884 3.74999 10.1341 3.74999 9.71299C3.74999 9.26103 3.49725 8.88291 3.13827 8.66338C3.16796 8.07666 3.46796 7.55791 3.94647 7.229L11.5859 9.57627C11.9398 9.68486 12.6187 9.82041 13.4137 9.57627L24.3101 6.22861C25.2301 5.9458 25.2301 4.73018 24.3101 4.44736ZM13.7808 10.7712C12.6664 11.1134 11.7168 10.9243 11.2187 10.7712L5.55389 9.03096L4.99999 13.463C4.99999 14.8438 8.3578 15.963 12.5 15.963C16.6422 15.963 20 14.8438 20 13.463L19.4461 9.03057L13.7808 10.7712Z" fill="#D9D9D9"/>
</svg>
