<svg width="31" height="30" viewBox="0 0 31 30" fill="none" xmlns="http://www.w3.org/2000/svg">
<path d="M15.3471 7.31017C11.0905 7.31017 7.65719 10.7435 7.65719 15.0001C7.65719 19.2566 11.0905 22.69 15.3471 22.69C19.6037 22.69 23.037 19.2566 23.037 15.0001C23.037 10.7435 19.6037 7.31017 15.3471 7.31017ZM15.3471 19.9995C12.5964 19.9995 10.3477 17.7575 10.3477 15.0001C10.3477 12.2427 12.5897 10.0006 15.3471 10.0006C18.1045 10.0006 20.3465 12.2427 20.3465 15.0001C20.3465 17.7575 18.0978 19.9995 15.3471 19.9995ZM25.1452 6.99561C25.1452 7.99282 24.3421 8.78925 23.3516 8.78925C22.3543 8.78925 21.5579 7.98613 21.5579 6.99561C21.5579 6.00509 22.361 5.20197 23.3516 5.20197C24.3421 5.20197 25.1452 6.00509 25.1452 6.99561ZM30.2383 8.81602C30.1246 6.41335 29.5758 4.28507 27.8156 2.53158C26.0621 0.778097 23.9338 0.229296 21.5311 0.108828C19.0548 -0.0317187 11.6327 -0.0317187 9.15635 0.108828C6.76037 0.222604 4.63209 0.771405 2.87192 2.52489C1.11174 4.27838 0.569628 6.40665 0.44916 8.80933C0.308613 11.2856 0.308613 18.7078 0.44916 21.1841C0.562936 23.5868 1.11174 25.7151 2.87192 27.4686C4.63209 29.222 6.75368 29.7708 9.15635 29.8913C11.6327 30.0319 19.0548 30.0319 21.5311 29.8913C23.9338 29.7775 26.0621 29.2287 27.8156 27.4686C29.5691 25.7151 30.1179 23.5868 30.2383 21.1841C30.3789 18.7078 30.3789 11.2923 30.2383 8.81602ZM27.0392 23.8411C26.5172 25.1529 25.5066 26.1635 24.1881 26.6922C22.2138 27.4753 17.5289 27.2946 15.3471 27.2946C13.1653 27.2946 8.4737 27.4686 6.50605 26.6922C5.19428 26.1702 4.18368 25.1596 3.65496 23.8411C2.87192 21.8668 3.05262 17.1819 3.05262 15.0001C3.05262 12.8183 2.87861 8.12668 3.65496 6.15902C4.17699 4.84726 5.18759 3.83666 6.50605 3.30794C8.48039 2.52489 13.1653 2.70559 15.3471 2.70559C17.5289 2.70559 22.2205 2.53158 24.1881 3.30794C25.4999 3.82997 26.5105 4.84056 27.0392 6.15902C27.8223 8.13337 27.6416 12.8183 27.6416 15.0001C27.6416 17.1819 27.8223 21.8735 27.0392 23.8411Z" fill="url(#paint0_linear_219_1949)"/>
<defs>
<linearGradient id="paint0_linear_219_1949" x1="15.3438" y1="0.00341797" x2="15.3438" y2="29.9967" gradientUnits="userSpaceOnUse">
<stop stop-color="#C0AD5A" stop-opacity="0.866667"/>
<stop offset="1" stop-color="#B98E53"/>
</linearGradient>
</defs>
</svg>
