<svg width="31" height="30" viewBox="0 0 31 30" fill="none" xmlns="http://www.w3.org/2000/svg">
<path d="M28.2009 0H2.47991C1.30134 0 0.34375 0.970982 0.34375 2.16295V27.8371C0.34375 29.029 1.30134 30 2.47991 30H28.2009C29.3795 30 30.3438 29.029 30.3438 27.8371V2.16295C30.3438 0.970982 29.3795 0 28.2009 0ZM9.41071 25.7143H4.96429V11.3973H9.41741V25.7143H9.41071ZM7.1875 9.44196C5.76116 9.44196 4.60938 8.28348 4.60938 6.86384C4.60938 5.4442 5.76116 4.28571 7.1875 4.28571C8.60714 4.28571 9.76562 5.4442 9.76562 6.86384C9.76562 8.29018 8.61384 9.44196 7.1875 9.44196ZM26.0781 25.7143H21.6317V18.75C21.6317 17.0893 21.5982 14.9531 19.3214 14.9531C17.0045 14.9531 16.6496 16.7612 16.6496 18.6295V25.7143H12.2031V11.3973H16.4688V13.3527H16.529C17.125 12.2277 18.5781 11.0424 20.7411 11.0424C25.2411 11.0424 26.0781 14.0089 26.0781 17.8661V25.7143Z" fill="url(#paint0_linear_219_1947)"/>
<defs>
<linearGradient id="paint0_linear_219_1947" x1="15.3438" y1="0" x2="15.3438" y2="30" gradientUnits="userSpaceOnUse">
<stop stop-color="#C0AD5A" stop-opacity="0.866667"/>
<stop offset="1" stop-color="#B98E53"/>
</linearGradient>
</defs>
</svg>
