<svg width="85" height="85" viewBox="0 0 85 85" fill="none" xmlns="http://www.w3.org/2000/svg">
<g clip-path="url(#clip0_88_143)">
<path d="M39.5419 5.15807C38.1661 4.77996 37.0658 6.03287 37.5703 7.35324C39.8487 13.4163 38.872 20.1035 34.6712 25.1994L29.3706 31.6296C22.3472 40.1497 23.5615 52.7603 32.0815 59.7837C32.6442 60.2475 33.2357 60.6271 33.8287 61.0214C34.3827 52.8653 37.3664 42.8917 46.0197 32.3944C46.6028 31.6871 47.6586 31.5855 48.3659 32.1685C49.0732 32.7516 49.1749 33.8074 48.5918 34.5147C31.9345 54.7216 37.2576 73.5002 40.3477 79.2335C41.2206 80.844 43.2324 81.4494 44.8509 80.5832C46.4841 79.7156 47.0816 77.6971 46.23 76.0772C46.04 75.7181 43.7647 71.2235 43.7118 64.295C49.3871 64.5995 56.8364 62.4245 61.5055 55.3521C70.9917 41.9775 66.996 23.7667 53.139 12.3437C49.104 9.01759 44.2088 6.44024 39.5419 5.15807Z" fill="url(#paint0_linear_88_143)"/>
</g>
<defs>
<linearGradient id="paint0_linear_88_143" x1="21.6543" y1="25.2651" x2="62.8131" y2="59.1938" gradientUnits="userSpaceOnUse">
<stop stop-color="#C0AD5A" stop-opacity="0.866667"/>
<stop offset="1" stop-color="#B98E53"/>
</linearGradient>
<clipPath id="clip0_88_143">
<rect width="60.0001" height="60.0001" fill="white" transform="translate(0 46.2974) rotate(-50.5)"/>
</clipPath>
</defs>
</svg>
