<svg width="80" height="80" viewBox="0 0 80 80" fill="none" xmlns="http://www.w3.org/2000/svg">
<g clip-path="url(#clip0_88_121)">
<path d="M40 79.375C38.9531 79.375 37.8906 79.0937 36.9687 78.5625L27.3281 72.8594C25.8906 72.0469 26.5937 71.7656 27.0625 71.6094C28.9844 70.9375 29.375 70.7969 31.4219 69.625C31.6406 69.5 31.9219 69.5469 32.1406 69.6875L39.5469 74.0781C39.8125 74.2344 40.1875 74.2344 40.4375 74.0781L69.2969 57.4219C69.5625 57.2656 69.7344 56.9531 69.7344 56.6406V23.3281C69.7344 23 69.5625 22.7031 69.2812 22.5312L40.4375 5.89062C40.1719 5.73437 39.8125 5.73437 39.5469 5.89062L10.7187 22.5469C10.4375 22.7031 10.2656 23.0156 10.2656 23.3437L10.2656 56.6406C10.2656 56.9531 10.4375 57.2656 10.7187 57.4062L18.625 61.9687C22.9219 64.1094 25.5469 61.5937 25.5469 59.0469L25.5469 26.1719C25.5469 25.7031 25.9219 25.3437 26.3906 25.3437H30.0469C30.5 25.3437 30.8906 25.7031 30.8906 26.1719L30.8906 59.0625C30.8906 64.7812 27.7656 68.0625 22.3437 68.0625C20.6719 68.0625 19.3594 68.0625 15.7031 66.25L8.14062 61.8906C6.26562 60.8125 5.10937 58.7969 5.10937 56.625L5.10937 23.3281C5.10937 21.1719 6.26562 19.1406 8.14062 18.0625L36.9687 1.40625C38.7969 0.375 41.2187 0.375 43.0312 1.40625L71.8906 18.0781C73.7656 19.1562 74.9219 21.1719 74.9219 23.3437V56.6406C74.9219 58.7969 73.7656 60.8125 71.8906 61.9062L43.0312 78.5625C42.1094 79.0937 41.0625 79.375 40 79.375ZM63.2969 46.5469C63.2969 40.3125 59.0781 38.6562 50.2187 37.4844C41.25 36.2969 40.3437 35.6875 40.3437 33.5937C40.3437 31.8594 41.1094 29.5469 47.75 29.5469C53.6719 29.5469 55.8594 30.8281 56.7656 34.8281C56.8437 35.2031 57.1875 35.4844 57.5781 35.4844H61.3281C61.5625 35.4844 61.7812 35.3906 61.9375 35.2187C62.0937 35.0469 62.1719 34.8125 62.1562 34.5781C61.5781 27.6875 57 24.4844 47.75 24.4844C39.5156 24.4844 34.6094 27.9531 34.6094 33.7812C34.6094 40.0937 39.5 41.8437 47.3906 42.625C56.8437 43.5469 57.5781 44.9375 57.5781 46.7969C57.5781 50.0156 54.9844 51.3906 48.9062 51.3906C41.2656 51.3906 39.5937 49.4687 39.0312 45.6719C38.9687 45.2656 38.625 44.9687 38.2031 44.9687L34.4687 44.9687C34 44.9687 33.6406 45.3437 33.6406 45.7969C33.6406 50.6562 36.2812 56.4531 48.9219 56.4531C58.0469 56.4375 63.2969 52.8281 63.2969 46.5469Z" fill="url(#paint0_linear_88_121)"/>
</g>
<defs>
<linearGradient id="paint0_linear_88_121" x1="40.0156" y1="0.632813" x2="40.0156" y2="79.375" gradientUnits="userSpaceOnUse">
<stop stop-color="#C0AD5A" stop-opacity="0.866667"/>
<stop offset="1" stop-color="#B98E53"/>
</linearGradient>
<clipPath id="clip0_88_121">
<rect width="80" height="80" fill="white"/>
</clipPath>
</defs>
</svg>
