<svg width="26" height="26" viewBox="0 0 26 26" fill="none" xmlns="http://www.w3.org/2000/svg">
<path d="M22.8149 16.8461C21.5918 17.8387 20.2451 18.6615 18.7847 19.2411L21.4399 23.8402L24.0742 24.9652C24.5532 25.1698 25.0942 24.8573 25.1567 24.3402L25.4995 21.496L22.8149 16.8461ZM24.8896 12.2289C25.127 11.8544 24.9819 11.3505 24.5942 11.1356L23.2236 10.3754C22.8584 10.1727 22.4126 10.3041 22.1855 10.6547C20.1782 13.7567 16.7231 15.6537 13 15.6537C11.8315 15.6537 10.6938 15.4462 9.61084 15.0907L12.8999 9.39343C12.9341 9.39441 12.9653 9.40369 12.9995 9.40369C13.0337 9.40369 13.0654 9.39441 13.0991 9.39343L15.5938 13.7147C17.1187 13.2772 18.502 12.4574 19.6274 11.326L17.0986 6.94568C17.4624 6.28015 17.6875 5.5282 17.6875 4.71619C17.6875 2.12732 15.5889 0.0286865 13 0.0286865C10.4111 0.0286865 8.3125 2.12732 8.3125 4.71619C8.3125 5.5282 8.5376 6.28015 8.90088 6.94568L5.56592 12.7225C4.95312 12.1556 4.396 11.5219 3.92139 10.8182C3.6875 10.4716 3.23926 10.3485 2.87744 10.558L1.52246 11.3427C1.13916 11.5643 1.00342 12.0702 1.24707 12.4398C2.00732 13.5941 2.94092 14.5985 3.98047 15.4681L0.5 21.4965L0.842773 24.3407C0.905273 24.8578 1.44629 25.1703 1.92529 24.9657L4.55957 23.8407L8.0166 17.8529C9.58838 18.4506 11.2725 18.7787 13 18.7787C17.8364 18.7787 22.3203 16.288 24.8896 12.2289ZM13 3.15369C13.8628 3.15369 14.5625 3.85339 14.5625 4.71619C14.5625 5.57898 13.8628 6.27869 13 6.27869C12.1372 6.27869 11.4375 5.57898 11.4375 4.71619C11.4375 3.85339 12.1372 3.15369 13 3.15369Z" fill="url(#paint0_linear_2_47)"/>
<defs>
<linearGradient id="paint0_linear_2_47" x1="12.9998" y1="0.0286865" x2="12.9998" y2="25.0291" gradientUnits="userSpaceOnUse">
<stop stop-color="#C0AD5A" stop-opacity="0.866667"/>
<stop offset="1" stop-color="#B98E53"/>
</linearGradient>
</defs>
</svg>
